<svg width="200" height="60" xmlns="http://www.w3.org/2000/svg" viewBox="-252.36002197265623 -3.640000915527338 1004.7200439453125 157.28000183105468" style="background: rgb(255, 182, 187);" preserveAspectRatio="xMidYMid"><defs><filter id="editing-raise" x="-100%" y="-100%" width="300%" height="300%"><feFlood flood-color="#645e4b" result="flood-surface"></feFlood><feFlood flood-color="#95d5ee" result="flood-extrude"></feFlood><feMorphology operator="erode" in="SourceAlpha" radius="1" result="erode"></feMorphology><feConvolveMatrix in="erode" result="shadow" order="11,8" divisor="1" kernelMatrix="0 0 0 1 1 1 1 1 0 0 0 0 0 1 0 0 0 0 0 1 0 0 0 0 1 0 0 0 0 0 1 0 0 0 0 1 0 0 0 0 0 1 0 0 0 0 1 0 0 0 0 0 1 0 0 0 0 0 1 0 0 0 1 0 0 0 0 0 0 1 1 0 1 1 0 0 0 0 0 0 0 0 1 0 0 0 0 0"></feConvolveMatrix><feOffset dx="0" dy="4" in="shadow" result="offset"></feOffset><feGaussianBlur in="offset" stdDeviation="0.2" result="blur"></feGaussianBlur><feComposite operator="in" in="flood-extrude" in2="blur" result="extrude"></feComposite><feMorphology operator="erode" in="SourceAlpha" radius="1" result="erode2"></feMorphology><feConvolveMatrix in="erode2" result="out" order="4,4" divisor="1" kernelMatrix="0 1 1 0 1 0 0 1 1 0 0 1 0 1 1 0 "></feConvolveMatrix><feComposite operator="in" in="flood-surface" in2="out" result="text"></feComposite><feMerge><feMergeNode in="extrude"></feMergeNode><feMergeNode in="text"></feMergeNode></feMerge></filter></defs><g filter="url(#editing-raise)"><g transform="translate(-112.38501930236816, 107.98000144958496)"><path d="M26.97-65.25L26.97-65.25Q33.94-65.25 41.41-62.22L41.41-62.22L40.10-54.44L38.68-54.04L38.68-54.04Q35.75-56.26 32.47-57.47L32.47-57.47L32.47-57.47Q29.19-58.68 25.96-58.68L25.96-58.68L25.96-58.68Q22.22-58.68 19.44-57.17L19.44-57.17L19.44-57.17Q16.67-55.65 15.20-53.23L15.20-53.23L15.20-53.23Q13.74-50.80 13.74-48.18L13.74-48.18L13.74-48.18Q13.74-45.45 15.40-43.38L15.40-43.38L15.40-43.38Q17.07-41.31 19.59-39.79L19.59-39.79L19.59-39.79Q22.12-38.28 26.46-36.16L26.46-36.16L26.46-36.16Q31.92-33.63 35.25-31.46L35.25-31.46L35.25-31.46Q38.58-29.29 40.96-25.96L40.96-25.96L40.96-25.96Q43.33-22.62 43.33-17.88L43.33-17.88L43.33-17.88Q43.33-12.83 40.60-8.59L40.60-8.59L40.60-8.59Q37.88-4.34 32.93-1.82L32.93-1.82L32.93-1.82Q27.98 0.71 21.61 0.71L21.61 0.71L21.61 0.71Q17.37 0.71 12.78-0.45L12.78-0.45L12.78-0.45Q8.18-1.62 4.24-3.84L4.24-3.84L5.25-12.12L6.36-12.63L6.36-12.63Q9.90-9.19 14.19-7.52L14.19-7.52L14.19-7.52Q18.48-5.86 22.42-5.86L22.42-5.86L22.42-5.86Q26.26-5.86 29.24-7.37L29.24-7.37L29.24-7.37Q32.22-8.89 33.78-11.41L33.78-11.41L33.78-11.41Q35.35-13.94 35.35-16.77L35.35-16.77L35.35-16.77Q35.35-21.01 32.12-23.58L32.12-23.58L32.12-23.58Q28.89-26.16 22.32-29.19L22.32-29.19L22.32-29.19Q16.97-31.82 13.74-33.89L13.74-33.89L13.74-33.89Q10.50-35.96 8.18-39.24L8.18-39.24L8.18-39.24Q5.86-42.52 5.86-47.27L5.86-47.27L5.86-47.27Q5.86-52.22 8.53-56.36L8.53-56.36L8.53-56.36Q11.21-60.50 16.01-62.87L16.01-62.87L16.01-62.87Q20.81-65.25 26.97-65.25L26.97-65.25ZM76.56-50.90L76.56-50.90Q87.57-50.90 93.48-44.44L93.48-44.44L93.48-44.44Q99.38-37.98 99.38-26.16L99.38-26.16L99.38-26.16Q99.38-13.33 93.07-6.31L93.07-6.31L93.07-6.31Q86.76 0.71 75.04 0.71L75.04 0.71L75.04 0.71Q64.14 0.71 58.18-5.91L58.18-5.91L58.18-5.91Q52.22-12.52 52.22-24.75L52.22-24.75L52.22-24.75Q52.22-37.27 58.58-44.09L58.58-44.09L58.58-44.09Q64.94-50.90 76.56-50.90L76.56-50.90ZM75.85-44.54L75.85-44.54Q67.87-44.54 63.98-40.00L63.98-40.00L63.98-40.00Q60.10-35.45 60.10-25.65L60.10-25.65L60.10-25.65Q60.10-15.15 63.93-10.40L63.93-10.40L63.93-10.40Q67.77-5.66 75.65-5.66L75.65-5.66L75.65-5.66Q83.73-5.66 87.67-10.30L87.67-10.30L87.67-10.30Q91.61-14.95 91.61-24.85L91.61-24.85L91.61-24.85Q91.61-35.05 87.72-39.79L87.72-39.79L87.72-39.79Q83.83-44.54 75.85-44.54L75.85-44.54ZM129.18-44.24L119.99-44.14L119.89-27.57L128.57-27.47L137.46-27.78L137.97-27.07L137.46-21.31L127.87-21.41L119.79-21.31L119.79-15.76L119.99 0L112.51 0L112.72-15.15L112.51-50.30L141.80-50.30L142.21-49.69L141.60-43.83L129.18-44.24ZM185.94-50.30L186.35-49.69L185.84-43.33L176.45-44.04L171.40-44.04L171.09-15.76L171.40 0L163.82 0L164.13-15.15L163.92-44.04L158.87-44.04L149.28-43.33L148.67-44.04L149.28-50.30L185.94-50.30ZM216.24-17.57L216.14-14.44L216.44 0L208.87 0L209.27-14.44L209.17-17.57L192.10-50.30L200.38-50.30L201.39-47.37L212.71-25.76L213.21-25.76L225.53-47.07L226.85-50.30L234.93-50.30L216.24-17.57ZM263.61-50.40L263.61-50.40Q271.59-50.40 275.88-46.56L275.88-46.56L275.88-46.56Q280.17-42.72 280.17-35.45L280.17-35.45L280.17-35.45Q280.17-26.97 274.77-22.17L274.77-22.17L274.77-22.17Q269.37-17.37 259.87-17.37L259.87-17.37L253.71-17.37L253.71-15.76L253.91 0L246.44 0L246.74-15.15L246.44-50.30L263.61-50.40ZM262.30-23.23L262.30-23.23Q272.30-24.95 272.30-34.84L272.30-34.84L272.30-34.84Q272.30-39.59 269.62-41.91L269.62-41.91L269.62-41.91Q266.94-44.24 261.59-44.44L261.59-44.44L253.91-44.34L253.81-23.43L262.30-23.23ZM310.78-6.06L324.21-6.46L324.82-5.86L324.11 0L293.51 0L293.81-15.15L293.51-50.30L324.31-50.30L324.82-49.69L324.21-43.83L311.48-44.24L300.98-44.14L300.88-28.89L310.88-28.79L319.67-29.09L320.17-28.38L319.56-22.42L310.27-22.73L300.88-22.62L300.78-15.76L300.88-6.16L310.78-6.06ZM412.18-64.74L418.54 0L411.27 0L409.76-19.70L406.32-51.91L405.62-51.91L387.64-7.47L380.97-7.47L363.90-51.91L363.10-51.91L359.66-20.30L357.94 0L351.08 0L357.84-64.74L367.03-64.74L370.37-54.84L384.41-17.98L385.01-17.98L399.76-55.45L403.09-64.74L412.18-64.74ZM451.07-6.06L464.50-6.46L465.11-5.86L464.40 0L433.80 0L434.10-15.15L433.80-50.30L464.60-50.30L465.11-49.69L464.50-43.83L451.77-44.24L441.27-44.14L441.17-28.89L451.17-28.79L459.95-29.09L460.46-28.38L459.85-22.42L450.56-22.73L441.17-22.62L441.07-15.76L441.17-6.16L451.07-6.06ZM497.43-50.70L497.43-50.70Q508.94-50.70 515.05-44.54L515.05-44.54L515.05-44.54Q521.16-38.38 521.16-26.87L521.16-26.87L521.16-26.87Q521.16-13.64 514.49-6.57L514.49-6.57L514.49-6.57Q507.83 0.51 495.41 0.51L495.41 0.51L495.41 0.51Q491.87 0.51 486.97 0.35L486.97 0.35L486.97 0.35Q482.07 0.20 477.73 0L477.73 0L478.03-15.15L477.73-50.30L497.43-50.70ZM496.62-5.66L496.62-5.66Q504.70-5.66 509.09-10.55L509.09-10.55L509.09-10.55Q513.48-15.45 513.48-25.35L513.48-25.35L513.48-25.35Q513.48-35.05 509.34-39.69L509.34-39.69L509.34-39.69Q505.20-44.34 496.82-44.34L496.82-44.34L496.82-44.34Q491.87-44.34 485.20-43.94L485.20-43.94L485.00-15.76L485.10-6.26L485.10-6.26Q488.03-6.06 491.26-5.86L491.26-5.86L491.26-5.86Q494.50-5.66 496.62-5.66L496.62-5.66ZM558.33-65.25L558.33-65.25Q568.53-65.25 576.00-60.40L576.00-60.40L574.39-53.03L573.48-52.82L573.48-52.82Q566.71-58.48 557.92-58.48L557.92-58.48L557.92-58.48Q548.33-58.48 543.18-51.86L543.18-51.86L543.18-51.86Q538.03-45.25 538.03-32.52L538.03-32.52L538.03-32.52Q538.03-19.70 543.18-12.93L543.18-12.93L543.18-12.93Q548.33-6.16 557.72-6.16L557.72-6.16L557.72-6.16Q562.17-6.16 566.56-7.78L566.56-7.78L566.56-7.78Q570.95-9.39 574.59-12.32L574.59-12.32L575.60-11.82L574.89-4.14L574.89-4.14Q566.11 0.71 557.02 0.71L557.02 0.71L557.02 0.71Q543.99 0.71 536.82-7.73L536.82-7.73L536.82-7.73Q529.64-16.16 529.64-31.82L529.64-31.82L529.64-31.82Q529.64-47.87 537.12-56.56L537.12-56.56L537.12-56.56Q544.59-65.25 558.33-65.25L558.33-65.25ZM608.93-50.30L626.60 0L619.03 0L617.82-5.45L615.19-12.93L603.17-13.03L592.47-12.93L589.74-5.86L588.33 0L580.85 0L600.24-50.30L608.93-50.30ZM603.78-18.99L613.07-19.09L604.69-42.93L604.08-42.93L594.89-19.09L603.78-18.99ZM662.26-20.30L662.26-20.30Q668.42-10.91 675.89-1.82L675.89-1.82L675.79-0.81L675.79-0.81Q671.55 0.51 668.82 0.71L668.82 0.71L667.51-0.10L667.51-0.10Q659.83-11.72 655.89-18.38L655.89-18.38L646.40-18.28L646.40-15.76L646.60 0L639.13 0L639.43-15.15L639.13-50.30L656.30-50.40L656.30-50.40Q664.28-50.40 668.57-46.66L668.57-46.66L668.57-46.66Q672.86-42.93 672.86-35.86L672.86-35.86L672.86-35.86Q672.86-30.70 670.08-26.66L670.08-26.66L670.08-26.66Q667.31-22.62 662.26-20.30L662.26-20.30ZM646.60-44.24L646.50-24.54L656.00-24.24L656.00-24.24Q664.98-26.77 664.98-35.25L664.98-35.25L664.98-35.25Q664.98-39.69 662.36-41.91L662.36-41.91L662.36-41.91Q659.73-44.14 654.38-44.34L654.38-44.34L646.60-44.24ZM706.50-6.06L719.93-6.46L720.53-5.86L719.83 0L689.22 0L689.53-15.15L689.22-50.30L720.03-50.30L720.53-49.69L719.93-43.83L707.20-44.24L696.70-44.14L696.60-28.89L706.60-28.79L715.38-29.09L715.89-28.38L715.28-22.42L705.99-22.73L696.60-22.62L696.50-15.76L696.60-6.16L706.50-6.06Z"></path></g></g><style>text {
  font-size: 64px;
  font-family: Arial Black;
  dominant-baseline: central;
  text-anchor: middle;
}</style></svg>